# xmcd
#
# Track frame offsets:
#	150
#	13455
#	36314
#	51822
#	71140
#	88943
#	106116
#	126005
#	139695
#	167632
#	182459
#
# Disc length: 2641 seconds
#
# Revision: 0
# Processed by: cddbd v1.5.2PL0 Copyright (c) Steve Scherf et al.
# Submitted via: FairStars CD Ripper 1.90
#
DISCID=970a4f0b
DTITLE=StoweGood - Beautiful Brokenness, Disc 2
DYEAR=2017
DGENRE=Country
TTITLE0=Enough
TTITLE1=My Life Is A Prayer
TTITLE2=Temple Of My Soul
TTITLE3=Two Shoes
TTITLE4=Let Me Love You
TTITLE5=Ask
TTITLE6=Survivor's Song
TTITLE7=Bang Bang!
TTITLE8=Waiting For You
TTITLE9=Peace Is All I Know
TTITLE10=Raise My Vibration
EXTD=
EXTT0=
EXTT1=
EXTT2=
EXTT3=
EXTT4=
EXTT5=
EXTT6=
EXTT7=
EXTT8=
EXTT9=
EXTT10=
PLAYORDER=
